<svg width="31" height="31" viewBox="0 0 31 31" fill="none" xmlns="http://www.w3.org/2000/svg">
<g clip-path="url(#clip0_1_1221)">
<path d="M28.8702 10.3578L20.6422 2.12993C19.2785 0.766158 17.4288 0 15.5001 0C13.5714 0 11.7218 0.766158 10.358 2.12993L2.13007 10.3578C0.766295 11.7216 0.000137329 13.5713 0.000137329 15.5C0.000137329 17.4286 0.766295 19.2783 2.13007 20.6421L10.358 28.87C11.7218 30.2338 13.5714 30.9999 15.5001 30.9999C17.4288 30.9999 19.2785 30.2338 20.6422 28.87L28.8702 20.6421C30.2339 19.2783 31.0001 17.4286 31.0001 15.5C31.0001 13.5713 30.2339 11.7216 28.8702 10.3578V10.3578ZM15.5001 20.6059C14.8296 20.6059 14.1656 20.4739 13.5461 20.2173C12.9267 19.9607 12.3638 19.5846 11.8897 19.1104C11.4155 18.6363 11.0394 18.0734 10.7828 17.4539C10.5262 16.8345 10.3942 16.1705 10.3942 15.5C10.3942 14.8294 10.5262 14.1655 10.7828 13.546C11.0394 12.9265 11.4155 12.3636 11.8897 11.8895C12.3638 11.4154 12.9267 11.0393 13.5461 10.7827C14.1656 10.5261 14.8296 10.394 15.5001 10.394C16.8543 10.394 18.153 10.932 19.1106 11.8895C20.0681 12.8471 20.6061 14.1458 20.6061 15.5C20.6061 16.8542 20.0681 18.1529 19.1106 19.1104C18.153 20.068 16.8543 20.6059 15.5001 20.6059Z" fill="white"/>
</g>
<defs>
<clipPath id="clip0_1_1221">
<rect width="31" height="31" fill="white"/>
</clipPath>
</defs>
</svg>
