<svg width="31" height="31" viewBox="0 0 31 31" fill="none" xmlns="http://www.w3.org/2000/svg">
<path d="M7.216 9.93884H0.992701C0.716501 9.93884 0.492701 10.1627 0.492701 10.4388V30.4316C0.492701 30.7078 0.716501 30.9316 0.992701 30.9316H7.216C7.4922 30.9316 7.716 30.7078 7.716 30.4316V10.4388C7.716 10.1627 7.4922 9.93884 7.216 9.93884Z" fill="white"/>
<path d="M4.1066 0C1.8422 0 0 1.8402 0 4.1021C0 6.365 1.8422 8.2059 4.1066 8.2059C6.3692 8.2059 8.2099 6.3649 8.2099 4.1021C8.21 1.8402 6.3692 0 4.1066 0Z" fill="white"/>
<path d="M23.0454 9.44202C20.5459 9.44202 18.6982 10.5165 17.5775 11.7374V10.4389C17.5775 10.1628 17.3537 9.93892 17.0775 9.93892H11.1176C10.8414 9.93892 10.6176 10.1628 10.6176 10.4389V30.4317C10.6176 30.7079 10.8414 30.9317 11.1176 30.9317H17.3273C17.6035 30.9317 17.8273 30.7079 17.8273 30.4317V20.5399C17.8273 17.2066 18.7327 15.908 21.0563 15.908C23.5869 15.908 23.788 17.9898 23.788 20.7114V30.4318C23.788 30.708 24.0118 30.9318 24.288 30.9318H30.5C30.7762 30.9318 31 30.708 31 30.4318V19.4654C31 14.5089 30.0549 9.44202 23.0454 9.44202Z" fill="white"/>
</svg>
