<svg width="31" height="31" viewBox="0 0 31 31" fill="none" xmlns="http://www.w3.org/2000/svg">
<path d="M26.8225 0H4.17747C1.87045 0 0.000152588 1.87022 0.000152588 4.17731V26.8225C0.000152588 29.1296 1.87037 30.9999 4.17747 30.9999H15.3459L15.3649 19.9222H12.487C12.113 19.9222 11.8094 19.6198 11.808 19.2457L11.7942 15.6749C11.7927 15.2989 12.0972 14.9933 12.4732 14.9933H15.346V11.543C15.346 7.53895 17.7914 5.35873 21.3633 5.35873H24.2942C24.6692 5.35873 24.9733 5.66275 24.9733 6.03782V9.04873C24.9733 9.42366 24.6695 9.7276 24.2946 9.72783L22.4959 9.72866C20.5534 9.72866 20.1773 10.6517 20.1773 12.0063V14.9934H24.4456C24.8523 14.9934 25.1679 15.3485 25.1199 15.7524L24.6967 19.3232C24.6562 19.6649 24.3664 19.9223 24.0224 19.9223H20.1963L20.1773 31H26.8227C29.1297 31 30.9999 29.1298 30.9999 26.8228V4.17731C30.9999 1.87022 29.1296 0 26.8225 0Z" fill="white"/>
</svg>
