<svg width="36" height="36" viewBox="0 0 36 36" fill="none" xmlns="http://www.w3.org/2000/svg">
<path d="M14.055 8.265C13.7841 9.23678 13.6478 10.2412 13.65 11.25C13.65 17.37 18.63 22.35 24.75 22.35C25.77 22.35 26.775 22.215 27.735 21.945C26.9471 23.8811 25.6003 25.5385 23.8664 26.706C22.1326 27.8735 20.0903 28.498 18 28.5C12.21 28.5 7.50001 23.79 7.50001 18C7.50001 13.605 10.215 9.825 14.055 8.265ZM18 4.5C15.33 4.5 12.7199 5.29176 10.4998 6.77516C8.27974 8.25856 6.54942 10.367 5.52763 12.8338C4.50585 15.3006 4.2385 18.015 4.7594 20.6337C5.28031 23.2525 6.56606 25.6579 8.45406 27.5459C10.3421 29.4339 12.7475 30.7197 15.3663 31.2406C17.985 31.7615 20.6994 31.4942 23.1662 30.4724C25.633 29.4506 27.7414 27.7203 29.2248 25.5002C30.7082 23.2801 31.5 20.67 31.5 18C31.5 17.31 31.44 16.62 31.35 15.96C30.6005 17.011 29.6102 17.8672 28.4619 18.457C27.3137 19.0468 26.0409 19.353 24.75 19.35C23.0328 19.35 21.36 18.8046 19.9728 17.7925C18.5856 16.7803 17.5558 15.3537 17.0318 13.7184C16.5078 12.0831 16.5168 10.3236 17.0575 8.69379C17.5982 7.06393 18.6425 5.64792 20.04 4.65C19.38 4.56 18.69 4.5 18 4.5Z" fill="black"/>
</svg>
