<svg width="36" height="36" viewBox="0 0 36 36" fill="none" xmlns="http://www.w3.org/2000/svg">
<path d="M18 13.5C20.475 13.5 22.5 15.525 22.5 18C22.5 20.475 20.475 22.5 18 22.5C15.525 22.5 13.5 20.475 13.5 18C13.5 15.525 15.525 13.5 18 13.5ZM18 10.5C13.86 10.5 10.5 13.86 10.5 18C10.5 22.14 13.86 25.5 18 25.5C22.14 25.5 25.5 22.14 25.5 18C25.5 13.86 22.14 10.5 18 10.5ZM3 19.5H6C6.825 19.5 7.5 18.825 7.5 18C7.5 17.175 6.825 16.5 6 16.5H3C2.175 16.5 1.5 17.175 1.5 18C1.5 18.825 2.175 19.5 3 19.5ZM30 19.5H33C33.825 19.5 34.5 18.825 34.5 18C34.5 17.175 33.825 16.5 33 16.5H30C29.175 16.5 28.5 17.175 28.5 18C28.5 18.825 29.175 19.5 30 19.5ZM16.5 3V6C16.5 6.825 17.175 7.5 18 7.5C18.825 7.5 19.5 6.825 19.5 6V3C19.5 2.175 18.825 1.5 18 1.5C17.175 1.5 16.5 2.175 16.5 3ZM16.5 30V33C16.5 33.825 17.175 34.5 18 34.5C18.825 34.5 19.5 33.825 19.5 33V30C19.5 29.175 18.825 28.5 18 28.5C17.175 28.5 16.5 29.175 16.5 30ZM8.985 6.87C8.84623 6.73094 8.6814 6.62062 8.49994 6.54535C8.31848 6.47008 8.12395 6.43133 7.9275 6.43133C7.73105 6.43133 7.53652 6.47008 7.35506 6.54535C7.1736 6.62062 7.00877 6.73094 6.87 6.87C6.73094 7.00877 6.62062 7.1736 6.54535 7.35506C6.47008 7.53652 6.43133 7.73105 6.43133 7.9275C6.43133 8.12395 6.47008 8.31848 6.54535 8.49994C6.62062 8.6814 6.73094 8.84623 6.87 8.985L8.46 10.575C9.045 11.16 10.005 11.16 10.575 10.575C11.145 9.99 11.16 9.03 10.575 8.46L8.985 6.87ZM27.54 25.425C27.4012 25.2859 27.2364 25.1756 27.0549 25.1004C26.8735 25.0251 26.679 24.9863 26.4825 24.9863C26.286 24.9863 26.0915 25.0251 25.9101 25.1004C25.7286 25.1756 25.5638 25.2859 25.425 25.425C25.2859 25.5638 25.1756 25.7286 25.1004 25.9101C25.0251 26.0915 24.9863 26.286 24.9863 26.4825C24.9863 26.679 25.0251 26.8735 25.1004 27.0549C25.1756 27.2364 25.2859 27.4012 25.425 27.54L27.015 29.13C27.6 29.715 28.56 29.715 29.13 29.13C29.2691 28.9912 29.3794 28.8264 29.4546 28.6449C29.5299 28.4635 29.5687 28.269 29.5687 28.0725C29.5687 27.876 29.5299 27.6815 29.4546 27.5001C29.3794 27.3186 29.2691 27.1538 29.13 27.015L27.54 25.425ZM29.13 8.985C29.2691 8.84623 29.3794 8.6814 29.4546 8.49994C29.5299 8.31848 29.5687 8.12395 29.5687 7.9275C29.5687 7.73105 29.5299 7.53652 29.4546 7.35506C29.3794 7.1736 29.2691 7.00877 29.13 6.87C28.9912 6.73094 28.8264 6.62062 28.6449 6.54535C28.4635 6.47008 28.269 6.43133 28.0725 6.43133C27.876 6.43133 27.6815 6.47008 27.5001 6.54535C27.3186 6.62062 27.1538 6.73094 27.015 6.87L25.425 8.46C24.84 9.045 24.84 10.005 25.425 10.575C26.01 11.145 26.97 11.16 27.54 10.575L29.13 8.985ZM10.575 27.54C10.7141 27.4012 10.8244 27.2364 10.8996 27.0549C10.9749 26.8735 11.0137 26.679 11.0137 26.4825C11.0137 26.286 10.9749 26.0915 10.8996 25.9101C10.8244 25.7286 10.7141 25.5638 10.575 25.425C10.4362 25.2859 10.2714 25.1756 10.0899 25.1004C9.90848 25.0251 9.71395 24.9863 9.5175 24.9863C9.32105 24.9863 9.12652 25.0251 8.94506 25.1004C8.7636 25.1756 8.59877 25.2859 8.46 25.425L6.87 27.015C6.285 27.6 6.285 28.56 6.87 29.13C7.455 29.7 8.415 29.715 8.985 29.13L10.575 27.54V27.54Z" fill="white"/>
</svg>
