<svg width="31" height="26" viewBox="0 0 31 26" fill="none" xmlns="http://www.w3.org/2000/svg">
<path d="M30.2975 2.9291C29.8105 3.1451 29.3098 3.3274 28.7982 3.4754C29.4039 2.7904 29.8657 1.9844 30.1476 1.1024C30.2108 0.9047 30.1453 0.6883 29.9828 0.559C29.8205 0.4296 29.595 0.4141 29.4163 0.52C28.3298 1.1644 27.1576 1.6275 25.9285 1.8983C24.6904 0.6885 23.0088 0 21.2704 0C17.6009 0 14.6155 2.9853 14.6155 6.6547C14.6155 6.9437 14.6338 7.2311 14.67 7.5145C10.1165 7.1147 5.88322 4.8766 2.97622 1.3107C2.87262 1.1836 2.71302 1.1151 2.54962 1.1282C2.38612 1.141 2.23922 1.2332 2.15662 1.3749C1.56702 2.3866 1.25532 3.5437 1.25532 4.721C1.25532 6.3245 1.82782 7.8459 2.83912 9.0347C2.53162 8.9282 2.23322 8.7951 1.94842 8.637C1.79552 8.5519 1.60892 8.5532 1.45702 8.6403C1.30502 8.7274 1.20972 8.8876 1.20572 9.0627C1.20502 9.0922 1.20502 9.1217 1.20502 9.1516C1.20502 11.5451 2.49322 13.7 4.46272 14.8745C4.29352 14.8576 4.12442 14.8331 3.95642 14.801C3.78322 14.7679 3.60512 14.8286 3.48832 14.9607C3.37132 15.0927 3.33262 15.2767 3.38652 15.4447C4.11552 17.7207 5.99242 19.3948 8.26142 19.9052C6.37952 21.0839 4.22742 21.7013 1.96822 21.7013C1.49682 21.7013 1.02272 21.6736 0.558721 21.6187C0.328221 21.5913 0.107821 21.7274 0.0293212 21.9466C-0.0491788 22.1659 0.0340212 22.4104 0.230121 22.5361C3.13242 24.397 6.48832 25.3806 9.93482 25.3806C16.7102 25.3806 20.9487 22.1856 23.3112 19.5053C26.2572 16.1632 27.9468 11.7395 27.9468 7.3686C27.9468 7.186 27.944 7.0016 27.9384 6.8178C29.1007 5.9421 30.1014 4.8823 30.9157 3.6642C31.0394 3.4792 31.026 3.2347 30.8827 3.0644C30.7396 2.894 30.5011 2.8389 30.2975 2.9291Z" fill="white"/>
</svg>
